<svg width="20" height="20" viewBox="0 0 20 20" fill="none" xmlns="http://www.w3.org/2000/svg">
<g id="Google-Icon">
<path id="Vector" d="M18.1713 8.36788H17.5001V8.33329H10.0001V11.6666H14.7097C14.0226 13.607 12.1763 15 10.0001 15C7.23883 15 5.00008 12.7612 5.00008 9.99996C5.00008 7.23871 7.23883 4.99996 10.0001 4.99996C11.2747 4.99996 12.4342 5.48079 13.3172 6.26621L15.6742 3.90913C14.1859 2.52204 12.1951 1.66663 10.0001 1.66663C5.398 1.66663 1.66675 5.39788 1.66675 9.99996C1.66675 14.602 5.398 18.3333 10.0001 18.3333C14.6022 18.3333 18.3334 14.602 18.3334 9.99996C18.3334 9.44121 18.2759 8.89579 18.1713 8.36788Z" fill="#FFC107"/>
<path id="Vector_2" d="M2.62769 6.12121L5.3656 8.12912C6.10644 6.29496 7.9006 4.99996 10.0002 4.99996C11.2748 4.99996 12.4344 5.48079 13.3173 6.26621L15.6744 3.90913C14.186 2.52204 12.1952 1.66663 10.0002 1.66663C6.79935 1.66663 4.02352 3.47371 2.62769 6.12121Z" fill="#FF3D00"/>
<path id="Vector_3" d="M9.9998 18.3334C12.1523 18.3334 14.1081 17.5096 15.5869 16.17L13.0077 13.9875C12.1711 14.6213 11.1311 15 9.9998 15C7.8323 15 5.99189 13.618 5.29855 11.6892L2.58105 13.783C3.96022 16.4817 6.76105 18.3334 9.9998 18.3334Z" fill="#4CAF50"/>
<path id="Vector_4" d="M18.1712 8.36796H17.5V8.33337H10V11.6667H14.7096C14.3796 12.5988 13.78 13.4025 13.0067 13.988C13.0071 13.9875 13.0075 13.9875 13.0079 13.9871L15.5871 16.1696C15.4046 16.3355 18.3333 14.1667 18.3333 10C18.3333 9.44129 18.2758 8.89587 18.1712 8.36796Z" fill="#1976D2"/>
</g>
</svg>
